<svg width="70" height="66" viewBox="0 0 70 66" fill="none" xmlns="http://www.w3.org/2000/svg">
<g clip-path="url(#clip0_11_49)">
<path d="M16.6582 36.2974L18.5102 22.3826L2.44629 11.2309L17.1237 16.2026L20.59 10.8843L33.2471 3.03055L61.1461 18.4012L62.592 41.8534L50.1628 59.1256L40.3382 60.631L45.4188 51.3313V42.3783L41.7247 35.3862L37.9712 32.9004L32.1973 38.8526V45.1514L27.6911 49.3704L21.9667 50.0637L19.4313 51.4997L15.2717 50.1726L13.5385 43.9332L16.6582 39.5458V36.2974Z" fill="white"/>
<path d="M42.3089 11.1121C39.2486 10.4782 35.9012 10.6466 35.9012 10.6466C35.9012 10.6466 34.8018 15.7272 27.988 17.0642C28.0376 17.0642 36.9906 20.1245 42.3089 11.1121Z" fill="#94A6C3"/>
<path d="M45.0821 57.2142C48.7763 54.3223 51.5493 50.341 52.8269 45.8348C52.8863 45.6664 53.4013 45.3693 53.748 45.1415C54.3224 44.7949 54.9067 44.5077 55.0156 44.0422C55.2434 42.7151 55.3623 41.3285 55.3623 39.942C55.3623 39.427 54.8374 38.9021 54.3224 38.3871C53.9163 38.0405 53.5103 37.6344 53.5103 37.3472C52.9358 32.0883 50.5094 27.176 46.637 23.6007L46.231 24.0068C49.9845 27.5326 52.4109 32.326 52.9358 37.4066C52.9953 37.8721 53.4508 38.3277 53.9163 38.7932C54.3224 39.1398 54.7879 39.6647 54.7879 39.8925C54.7879 41.2196 54.669 42.5467 54.4412 43.8738C54.3818 44.1016 53.8668 44.3393 53.4607 44.5671C52.8863 44.8543 52.3614 45.1415 52.2525 45.607C50.8659 50.5193 47.6868 54.7977 43.4678 57.5708C44.2205 55.9564 46.5875 50.6975 47.8552 48.0334L47.6274 39.4864L40.2887 32.3854L36.1291 32.9598L31.5635 40.358C31.5635 40.358 33.7027 43.0716 30.6919 46.2507C27.7505 49.3704 25.433 50.0637 25.433 50.0637L23.2938 48.9049C23.9276 48.0928 25.2052 46.8846 26.1857 46.0725C27.8594 44.6859 29.5332 44.5671 29.5332 43.0716C29.6025 39.942 26.2451 40.8036 26.2451 40.8036L25.027 41.9624L24.512 46.2408L21.9766 49.4199L21.6894 49.3605L17.5298 48.4395C17.5298 48.4395 20.0751 47.1124 20.4811 45.607C20.8872 44.161 19.669 39.3676 19.6096 39.0804C19.669 39.1398 20.8277 40.1203 21.3427 41.7346C22.2638 39.1893 23.482 36.7629 23.8286 36.5351C24.1752 36.3073 28.8498 33.8215 28.8498 33.8215L27.2949 37.9216L28.4537 37.2878L31.2267 30.474C31.2267 30.474 33.9404 29.1469 35.9607 29.1469C39.5954 29.0874 44.9732 24.6406 42.5468 16.6681C43.24 16.9553 55.2533 22.9669 57.3331 34.7524C58.888 43.8144 53.748 52.3019 45.0821 57.2142Z" fill="#94A6C3"/>
<path d="M31.3355 12.3797C32.6626 10.8149 32.1476 8.50735 32.1476 8.50735L28.2752 14.2317C28.2158 14.2317 29.6518 14.2912 31.3355 12.3797Z" fill="#1B314F"/>
<path d="M18.3319 43.6361L18.7974 41.3285C18.7974 41.3285 16.8859 44.676 16.7176 45.1415C16.5393 45.6664 16.8364 46.5874 17.5792 46.528C18.3319 46.4686 19.2529 45.3693 19.2529 44.5671C19.2529 43.5272 18.3319 43.6361 18.3319 43.6361Z" fill="#1B314F"/>
<path d="M52.6486 6.89303C52.6486 6.89303 55.5405 7.01188 58.5413 7.35851C51.777 2.04018 45.3693 0.485281 40.1698 0.485281C33.0093 0.485281 28.1565 3.43661 27.8594 3.60498L30.1174 0.0198025C30.1174 0.0198025 21.105 -0.851732 17.9259 8.68562C17.1137 6.66525 16.371 3.71392 16.371 3.71392C16.371 3.71392 11.6865 7.82399 13.8851 14.6378C8.50735 12.6769 0.831914 9.95331 0.534801 9.90379C0.128745 9.84437 0.0098997 10.0226 0.0098997 10.0226C0.0098997 10.0226 -0.108946 10.191 0.237687 10.4881C0.881433 10.9932 13.0136 19.9561 15.6777 21.6893C15.1033 23.7691 15.1033 24.7496 15.6777 25.73C16.4898 27.0572 16.5393 27.7504 16.4304 28.7309C16.3115 29.7114 15.2716 38.2088 15.0439 39.2487C14.8161 40.2886 12.3896 43.9827 12.4986 45.0821C12.6174 46.1814 14.1129 50.856 15.4499 51.3809C16.4304 51.7275 18.8568 52.4802 20.4711 52.4802C21.0456 52.4802 21.5705 52.3614 21.7982 52.1336C22.7787 51.2719 23.0659 51.0937 23.7592 51.0937C23.8186 51.0937 23.878 51.0937 23.9276 51.0937C24.2148 51.0937 24.5614 51.1531 24.9675 51.1531C25.8885 51.1531 27.1067 50.9748 27.9683 50.1726C29.236 48.9049 31.4346 47.1718 32.1279 46.3597C32.9994 45.2603 33.455 43.7649 33.2272 42.2595C33.049 40.873 33.8016 39.6548 34.6732 38.4465C35.7725 37.0006 37.7929 34.4058 37.7929 34.4058C41.7841 37.3967 44.2699 41.9624 44.2699 47.043C44.2699 56.0555 36.4162 63.3348 26.7105 63.3348C25.2051 63.3348 23.7691 63.1664 22.3231 62.8198C26.7699 64.3746 30.5235 64.8996 33.5937 64.8996C40.1203 64.8996 43.5866 62.5325 43.5866 62.5325C43.5866 62.5325 42.3783 64.0973 40.4075 65.88C40.4669 65.88 40.4669 65.88 40.4669 65.88C51.2719 64.3746 56.5308 55.481 56.5308 55.481C56.5308 55.481 56.1248 58.373 55.6098 60.3339C69.9802 49.5289 67.5538 36.0102 67.4943 35.5546C67.6132 35.723 69.0591 37.4561 69.8019 38.3871C72.1194 14.5784 52.6486 6.89303 52.6486 6.89303ZM30.5235 44.9137C30.2957 45.2009 29.3152 46.0724 28.622 46.7063C27.9287 47.3401 27.176 47.974 26.6016 48.5583C26.3738 48.7861 25.9083 48.9049 25.215 48.9049C24.9873 48.9049 24.7496 48.9049 24.5812 48.9049C24.4624 48.9049 24.3534 48.9049 24.2346 48.9049C24.1157 48.9049 24.0563 48.9049 24.0068 48.9049C23.8285 48.9049 23.6602 48.9049 23.4819 48.9049C24.3534 47.7462 26.8888 45.092 27.7603 44.5175C28.8002 43.8243 29.3251 43.131 28.6814 41.9228C28.0475 40.7046 26.3738 41.0017 26.3738 41.0017C26.3738 41.0017 27.3543 40.5956 28.2258 40.5956C27.1265 40.3084 25.74 40.5956 25.1061 41.2295C24.4128 41.8633 24.5317 44.1214 24.2445 45.5574C23.9573 47.0628 22.9768 47.8155 21.4714 49.202C20.6593 49.9547 20.0849 50.1825 19.6194 50.1825C18.6389 50.0142 17.4802 49.717 16.6681 49.4298C16.0937 48.6771 15.2221 46.1913 14.9943 45.1514C15.1627 44.577 15.856 43.3588 16.2026 42.6655C16.8959 41.3384 17.3019 40.5857 17.4208 39.8925C17.6486 38.912 18.4012 32.841 18.6884 30.3056C19.4411 31.2861 20.481 32.9103 20.2433 33.9502C21.9171 31.5832 20.7088 29.2657 20.1245 28.3447C19.6095 27.4236 18.9162 25.5716 19.4907 23.6106C20.0651 21.6497 22.1449 16.2125 22.1449 16.2125C22.1449 16.2125 22.8381 17.4307 23.8186 17.193C24.7991 16.9652 32.7122 5.06083 32.7122 5.06083C32.7122 5.06083 34.8514 9.73542 32.5934 13.1522C30.2858 16.5591 28.0277 17.193 28.0277 17.193C28.0277 17.193 31.2068 17.7674 34.1483 15.6282C35.3565 18.4607 36.5153 21.4021 36.5747 21.8081C36.3964 22.2142 34.0888 27.7603 33.8611 28.107C33.7422 28.2258 32.94 28.4536 32.3557 28.5724C31.3752 28.8596 30.8008 29.0379 30.5631 29.2063C30.157 29.5529 28.305 34.6336 27.4434 37.1194C26.4035 37.4066 25.3636 37.9909 24.6109 39.1398C25.017 38.8526 26.2847 38.6743 27.2156 38.5654C28.0277 38.5059 30.5037 39.833 31.1474 42.3189C31.1474 42.3783 31.1474 42.3783 31.1474 42.4377C31.2762 43.3489 30.989 44.2204 30.5235 44.9137ZM25.0962 45.607C25.6211 44.8543 25.5617 43.5866 25.6211 43.1805C25.6805 42.7745 25.7895 42.0218 26.2549 41.9128C26.7204 41.794 27.8197 41.9723 27.8197 42.7745C27.8197 43.5272 27.0076 43.6955 26.4332 44.2204C26.0173 44.6166 25.2051 45.4881 25.0962 45.607ZM48.1423 34.5642C48.7167 31.6228 48.7762 29.0775 48.6078 26.9977C50.856 29.9986 52.2425 33.6432 52.6486 37.3967C52.708 37.8622 53.1636 38.3178 53.629 38.7832C54.0351 39.1299 54.5006 39.5954 54.5006 39.8826C54.5006 41.2097 54.3817 42.5368 54.1539 43.8738C54.0945 44.0422 53.5795 44.3393 53.1735 44.5671C52.599 44.8543 52.0741 45.1415 51.9652 45.607C50.6975 50.0538 47.974 53.9856 44.3393 56.7586C49.7071 51.1531 52.3019 41.9029 48.1423 34.5642ZM44.5076 57.2736C48.2612 54.3817 51.1531 50.341 52.4208 45.7753C52.4802 45.607 52.9952 45.3099 53.3418 45.0821C53.9162 44.7949 54.5006 44.4482 54.6095 43.9827C54.8373 42.6556 54.9561 41.2691 54.9561 39.8826C54.9561 39.3676 54.4312 38.8427 53.9162 38.3277C53.629 37.981 53.1635 37.575 53.1635 37.2878C52.6981 33.0688 51.0243 29.0874 48.4295 25.7895C47.2708 18.8568 42.6556 16.7176 42.5368 16.6582C42.6556 16.8364 45.6565 21.1644 43.5767 26.245C41.4375 31.3851 35.9508 30.5829 35.4853 30.6324C35.0198 30.6324 33.2371 32.94 30.9791 37.2184C30.6918 37.0996 29.4737 36.8124 28.0872 37.0501C29.127 34.1582 30.6918 30.058 30.9791 29.7114C31.0979 29.5925 31.9595 29.3647 32.5439 29.1964C33.6432 28.9092 34.1582 28.7309 34.3364 28.5031C34.4553 28.3248 35.0297 26.9977 35.6041 25.6112C36.129 25.6112 37.4561 25.4924 37.5651 25.4329C37.6839 25.3141 38.7832 22.4915 38.7832 22.1449C38.7832 21.8577 36.5252 16.2521 35.6636 14.1129C36.0696 13.6474 36.4757 13.073 36.8718 12.4392C48.7167 13.7167 57.9669 23.7691 57.9669 35.9508C57.9669 45.3098 52.4802 53.4607 44.5076 57.2736Z" fill="#1B314F"/>
<path d="M29.1369 26.0767C30.2362 24.809 29.6618 22.442 27.6315 22.0359C28.1564 20.8277 28.8992 18.4012 28.8992 18.4012C28.8992 18.4012 23.0064 27.6415 22.4914 27.8198C21.9665 27.998 21.4515 25.9677 21.4515 25.9677C20.3522 30.1868 23.3035 30.7612 23.6502 29.4341C25.2645 29.0181 28.0376 27.2849 29.1369 26.0767Z" fill="#1B314F"/>
<path d="M24.1057 28.3249L27.1066 23.1848C27.1066 23.1848 28.8397 24.0563 27.9682 25.4428C26.8788 27.0572 24.1057 28.3249 24.1057 28.3249Z" fill="#FFD923"/>
<path d="M61.255 52.1336C60.3835 53.2923 59.403 54.5006 58.2542 55.6593C65.7018 41.3285 58.6008 28.2159 58.3136 27.7009C58.8385 28.2258 59.3535 28.8002 59.8189 29.3152C65.5334 35.6635 66.2267 45.2009 61.255 52.1336Z" fill="#D82122"/>
<path d="M68.1876 33.7026C65.5829 26.7105 61.8888 20.7583 53.7479 15.3905C45.8942 10.191 37.4562 10.597 36.9907 10.6565C36.9313 10.6565 36.8718 10.6565 36.8718 10.6565C37.159 10.5376 37.4462 10.4782 37.7335 10.4287C39.526 9.85427 41.8336 9.38879 44.1511 9.10158C50.2816 8.22014 56.4615 10.2999 60.6805 14.7566C60.74 14.8161 60.74 14.8161 60.7994 14.8755C65.5928 19.9561 68.0787 26.3045 68.1876 33.7026Z" fill="#D82122"/>
<path d="M51.8958 5.10045C43.2894 3.48614 37.7433 4.28834 33.752 5.79372C33.6332 5.32824 33.2271 4.40719 32.8805 3.6545C31.6822 5.10045 30.4046 6.83362 29.6024 7.93294C27.4037 9.43831 26.4827 10.8843 26.4827 10.8843C27.7504 6.54641 31.4544 3.31777 35.9606 2.50566C37.2283 2.27787 38.6148 2.15903 40.1202 2.15903C44.1015 2.21845 48.0828 3.19893 51.8958 5.10045Z" fill="#D82122"/>
<path d="M20.065 16.1927C13.3106 15.9649 15.5588 8.1013 15.6776 7.64572C15.6776 7.70514 16.1332 13.8257 20.065 16.1927Z" fill="#D82122"/>
<path d="M26.7105 2.04019C21.511 5.15989 22.5509 12.6075 22.5509 12.6075C17.5792 5.05094 26.3044 2.21846 26.7105 2.04019Z" fill="#D82122"/>
<path d="M18.1636 18.2725C18.5103 18.5597 18.8569 19.0846 18.4508 19.8373C18.223 20.2434 17.8764 20.1839 17.3515 19.9561C16.6582 19.6095 12.4987 17.1831 8.74512 14.6972C13.0236 16.2026 17.3515 17.8169 18.0448 18.1636C18.0448 18.1636 18.1042 18.223 18.1636 18.2725Z" fill="white"/>
</g>
<defs>
<clipPath id="clip0_11_49">
<rect width="70" height="65.88" fill="white"/>
</clipPath>
</defs>
</svg>
