<svg width="157" height="47" viewBox="0 0 157 47" fill="none" xmlns="http://www.w3.org/2000/svg">
<path d="M10 1.5L147 1.5C151.694 1.5 155.5 5.30558 155.5 10V37C155.5 41.6944 151.694 45.5 147 45.5L10 45.5C5.30558 45.5 1.5 41.6944 1.5 37L1.5 10C1.5 5.30558 5.30558 1.5 10 1.5Z" fill="#113D60" fill-opacity="0.64" stroke="#1CC3DD" stroke-width="3"/>
<path d="M20.6152 26.5646V21.2846C20.6152 18.8846 21.8152 17.6845 24.2152 17.6845H27.5752C29.9752 17.6845 31.1752 18.8846 31.1752 21.2846V26.5646C31.1752 28.9646 29.9752 30.1646 27.5752 30.1646H24.2152C21.8152 30.1646 20.6152 28.9646 20.6152 26.5646ZM22.5352 26.8046C22.5352 27.9246 23.0952 28.4846 24.2152 28.4846H27.5752C28.6952 28.4846 29.2552 27.9246 29.2552 26.8046V21.0446C29.2552 19.9246 28.6952 19.3646 27.5752 19.3646H24.2152C23.0952 19.3646 22.5352 19.9246 22.5352 21.0446V26.8046ZM34.8228 34.9646V17.6845H41.5428C43.9428 17.6845 45.1428 18.8846 45.1428 21.2846V26.5646C45.1428 28.9646 43.9428 30.1646 41.5428 30.1646H36.7428V34.9646H34.8228ZM36.7428 28.4846H41.5428C42.6628 28.4846 43.2228 27.9246 43.2228 26.8046V21.0446C43.2228 19.9246 42.6628 19.3646 41.5428 19.3646H36.7428V28.4846ZM48.5996 26.5646V21.2846C48.5996 18.8846 49.7996 17.6845 52.1996 17.6845L55.3196 17.6845C57.7196 17.6845 58.9196 18.8846 58.9196 21.2846V24.6686H50.5196V26.8046C50.5196 27.9246 51.0796 28.4846 52.1996 28.4846H58.4396V29.4446L57.4796 30.1646H52.1996C49.7996 30.1646 48.5996 28.9646 48.5996 26.5646ZM50.5196 23.1086H56.9996V21.0446C56.9996 19.9246 56.4396 19.3646 55.3196 19.3646L52.1996 19.3646C51.0796 19.3646 50.5196 19.9246 50.5196 21.0446V23.1086ZM62.5728 30.1646V17.6845H69.2928C71.6928 17.6845 72.8928 18.8846 72.8928 21.2846V30.1646H70.9728V21.0446C70.9728 19.9246 70.4128 19.3646 69.2928 19.3646H64.4928V30.1646H62.5728ZM82.209 26.5646V21.2846C82.209 18.8846 83.409 17.6845 85.809 17.6845H90.609V12.4046H92.529V30.1646H85.809C83.409 30.1646 82.209 28.9646 82.209 26.5646ZM84.129 26.8046C84.129 27.9246 84.689 28.4846 85.809 28.4846H90.609V19.3646H85.809C84.689 19.3646 84.129 19.9246 84.129 21.0446V26.8046ZM94.9297 29.7326L100.354 13.6045H103.666L109.09 29.7326L108.802 30.1646H107.146L105.778 25.9886L98.2417 25.9886L96.8737 30.1646H95.2177L94.9297 29.7326ZM98.8417 24.1646L105.178 24.1646L102.298 15.4286H101.722L98.8417 24.1646ZM111.487 34.9646V17.6845H118.207C120.607 17.6845 121.807 18.8846 121.807 21.2846V26.5646C121.807 28.9646 120.607 30.1646 118.207 30.1646H113.407V34.9646H111.487ZM113.407 28.4846H118.207C119.327 28.4846 119.887 27.9246 119.887 26.8046V21.0446C119.887 19.9246 119.327 19.3646 118.207 19.3646H113.407V28.4846ZM125.456 34.9646V17.6845H132.176C134.576 17.6845 135.776 18.8846 135.776 21.2846V26.5646C135.776 28.9646 134.576 30.1646 132.176 30.1646H127.376V34.9646H125.456ZM127.376 28.4846H132.176C133.296 28.4846 133.856 27.9246 133.856 26.8046V21.0446C133.856 19.9246 133.296 19.3646 132.176 19.3646H127.376V28.4846Z" fill="#1CC3DD"/>
</svg>
