<svg width="200" height="189" viewBox="0 0 200 189" fill="none" xmlns="http://www.w3.org/2000/svg">
<g clip-path="url(#clip0_11_49)">
<path d="M47.5948 103.707L52.8863 63.9501L6.98926 32.0882L48.9247 46.2931L58.8285 31.0979L94.9915 8.65869L174.703 52.5749L178.834 119.581L143.322 168.93L115.252 173.231L129.768 146.661V121.081L119.213 101.104L108.489 94.0011L91.9921 111.007V129.004L79.1172 141.058L62.7618 143.039L55.5178 147.142L43.6333 143.35L38.6814 125.523L47.5948 112.988V103.707Z" fill="white"/>
<path d="M120.883 31.7487C112.139 29.9377 102.575 30.4187 102.575 30.4187C102.575 30.4187 99.4341 44.9349 79.9661 48.7549C80.1075 48.7549 105.688 57.4985 120.883 31.7487Z" fill="#94A6C3"/>
<path d="M128.806 163.469C139.361 155.207 147.284 143.831 150.934 130.956C151.104 130.475 152.575 129.627 153.565 128.976C155.207 127.985 156.876 127.165 157.187 125.835C157.838 122.043 158.178 118.082 158.178 114.12C158.178 112.649 156.678 111.149 155.207 109.677C154.046 108.687 152.886 107.527 152.886 106.706C151.245 91.6808 144.312 77.6457 133.249 67.4307L132.088 68.5908C142.813 78.6644 149.745 92.36 151.245 106.876C151.415 108.206 152.717 109.508 154.046 110.838C155.207 111.828 156.537 113.328 156.537 113.979C156.537 117.77 156.197 121.562 155.546 125.354C155.376 126.005 153.905 126.684 152.745 127.334C151.104 128.155 149.604 128.976 149.293 130.306C145.331 144.341 136.248 156.565 124.194 164.488C126.344 159.876 133.107 144.85 136.729 137.238L136.078 112.818L115.11 92.5297L103.226 94.1709L90.1812 115.308C90.1812 115.308 96.2932 123.062 87.6911 132.145C79.287 141.058 72.6656 143.039 72.6656 143.039L66.5536 139.728C68.3645 137.408 72.0148 133.956 74.8161 131.636C79.5983 127.674 84.3804 127.334 84.3804 123.062C84.5785 114.12 74.9859 116.582 74.9859 116.582L71.5054 119.893L70.034 132.117L62.7901 141.2L61.9695 141.03L50.085 138.398C50.085 138.398 57.3572 134.607 58.5173 130.306C59.6775 126.174 56.197 112.479 56.0272 111.658C56.197 111.828 59.5077 114.629 60.9791 119.242C63.6107 111.969 67.0912 105.037 68.0816 104.386C69.0719 103.735 82.4279 96.6327 82.4279 96.6327L77.9854 108.348L81.2961 106.537L89.2191 87.0685C89.2191 87.0685 96.9723 83.2768 102.745 83.2768C113.13 83.107 128.495 70.4018 121.562 47.6231C123.543 48.4437 157.867 65.6197 163.809 99.2926C168.251 125.184 153.565 149.434 128.806 163.469Z" fill="#94A6C3"/>
<path d="M89.5302 35.3707C93.322 30.8999 91.8505 24.3068 91.8505 24.3068L80.7866 40.6622C80.6168 40.6622 84.7198 40.8319 89.5302 35.3707Z" fill="#1B314F"/>
<path d="M52.377 124.675L53.7069 118.081C53.7069 118.081 48.2457 127.646 47.7647 128.976C47.2553 130.475 48.1042 133.107 50.2265 132.937C52.377 132.767 55.0086 129.626 55.0086 127.334C55.0086 124.363 52.377 124.675 52.377 124.675Z" fill="#1B314F"/>
<path d="M150.424 19.6945C150.424 19.6945 158.687 20.034 167.261 21.0244C147.934 5.82915 129.627 1.38659 114.771 1.38659C94.3125 1.38659 80.4471 9.81896 79.5982 10.3L86.0499 0.0566483C86.0499 0.0566483 60.3 -2.43345 51.2168 24.8161C48.8965 19.0436 46.7743 10.6113 46.7743 10.6113C46.7743 10.6113 33.39 22.3543 39.6718 41.8224C24.3068 36.2196 2.37697 28.4381 1.52807 28.2966C0.367913 28.1268 0.0283546 28.6362 0.0283546 28.6362C0.0283546 28.6362 -0.311204 29.1172 0.679175 29.9661C2.51845 31.4092 37.1817 57.0176 44.7935 61.9695C43.1523 67.9118 43.1523 70.7131 44.7935 73.5145C47.1138 77.3062 47.2553 79.287 46.944 82.0884C46.6045 84.8897 43.6333 109.168 42.9825 112.139C42.3317 115.11 35.399 125.665 35.7103 128.806C36.0499 131.947 40.3226 145.303 44.1427 146.803C46.944 147.793 53.8767 149.943 58.489 149.943C60.1302 149.943 61.6299 149.604 62.2808 148.953C65.0821 146.491 65.9027 145.982 67.8835 145.982C68.0533 145.982 68.223 145.982 68.3645 145.982C69.1851 145.982 70.1755 146.152 71.3357 146.152C73.9672 146.152 77.4477 145.642 79.9095 143.35C83.5315 139.728 89.8133 134.777 91.7941 132.456C94.2842 129.315 95.5858 125.043 94.935 120.741C94.4256 116.78 96.5762 113.299 99.0663 109.847C102.207 105.716 107.98 98.3023 107.98 98.3023C119.383 106.848 126.486 119.893 126.486 134.409C126.486 160.159 104.046 180.956 76.3159 180.956C72.0148 180.956 67.9118 180.475 63.7805 179.485C76.4856 183.928 87.21 185.427 95.982 185.427C114.629 185.427 124.533 178.664 124.533 178.664C124.533 178.664 121.081 183.135 115.45 188.229C115.62 188.229 115.62 188.229 115.62 188.229C146.491 183.928 161.517 158.517 161.517 158.517C161.517 158.517 160.357 166.78 158.885 172.383C199.943 141.511 193.011 102.886 192.841 101.585C193.181 102.066 197.312 107.018 199.434 109.677C206.056 41.6526 150.424 19.6945 150.424 19.6945ZM87.21 128.325C86.5592 129.146 83.7578 131.636 81.7771 133.447C79.7963 135.258 77.6458 137.069 76.0046 138.738C75.3538 139.389 74.0238 139.728 72.0431 139.728C71.3923 139.728 70.7131 139.728 70.2321 139.728C69.8925 139.728 69.5813 139.728 69.2417 139.728C68.9022 139.728 68.7324 139.728 68.5909 139.728C68.0816 139.728 67.6005 139.728 67.0912 139.728C69.5813 136.418 76.8252 128.834 79.3153 127.193C82.2864 125.212 83.7861 123.232 81.9469 119.779C80.1359 116.299 75.3538 117.148 75.3538 117.148C75.3538 117.148 78.1551 115.988 80.6452 115.988C77.5043 115.167 73.5428 115.988 71.7318 117.799C69.751 119.61 70.0906 126.061 69.27 130.164C68.4494 134.465 65.648 136.616 61.347 140.577C59.0267 142.728 57.3855 143.379 56.0555 143.379C53.2542 142.898 49.9435 142.049 47.6231 141.228C45.9819 139.078 43.4918 131.975 42.841 129.004C43.3221 127.363 45.3028 123.882 46.2932 121.902C48.274 118.11 49.4341 115.959 49.7737 113.979C50.4245 111.177 52.575 93.8314 53.3956 86.5875C55.5462 89.3889 58.5173 94.0295 57.8382 97.0006C62.6203 90.2378 59.1681 83.6164 57.4986 80.9848C56.0272 78.3532 54.0465 73.0617 55.6877 67.459C57.3289 61.8563 63.2711 46.3215 63.2711 46.3215C63.2711 46.3215 65.2519 49.802 68.0533 49.1229C70.8546 48.472 93.4636 14.4596 93.4636 14.4596C93.4636 14.4596 99.5756 27.8156 93.124 37.5779C86.5309 47.3119 80.0793 49.1229 80.0793 49.1229C80.0793 49.1229 89.1625 50.7641 97.5666 44.652C101.019 52.7448 104.329 61.1489 104.499 62.3091C103.99 63.4692 97.3968 79.3153 96.746 80.3057C96.4064 80.6452 94.1144 81.2961 92.4449 81.6356C89.6435 82.4562 88.0023 82.9655 87.3232 83.4466C86.163 84.437 80.8716 98.9531 78.4098 106.056C75.4387 106.876 72.4675 108.546 70.317 111.828C71.4771 111.007 75.0991 110.498 77.759 110.187C80.0793 110.017 87.1534 113.809 88.9927 120.911C88.9927 121.081 88.9927 121.081 88.9927 121.251C89.3606 123.854 88.54 126.344 87.21 128.325ZM71.7035 130.306C73.2032 128.155 73.0335 124.533 73.2032 123.373C73.373 122.213 73.6843 120.062 75.0142 119.751C76.3441 119.412 79.4851 119.921 79.4851 122.213C79.4851 124.363 77.1647 124.844 75.5235 126.344C74.3351 127.476 72.0148 129.966 71.7035 130.306ZM137.55 98.755C139.191 90.3509 139.361 83.0787 138.88 77.1365C145.303 85.7103 149.264 96.1234 150.424 106.848C150.594 108.178 151.896 109.479 153.226 110.809C154.386 111.8 155.716 113.13 155.716 113.95C155.716 117.742 155.376 121.534 154.726 125.354C154.556 125.835 153.084 126.684 151.924 127.335C150.283 128.155 148.783 128.976 148.472 130.306C144.85 143.011 137.069 154.245 126.684 162.168C142.02 146.152 149.434 119.723 137.55 98.755ZM127.165 163.639C137.889 155.376 146.152 143.831 149.774 130.787C149.943 130.306 151.415 129.457 152.405 128.806C154.046 127.985 155.716 126.995 156.027 125.665C156.678 121.873 157.018 117.912 157.018 113.95C157.018 112.479 155.518 110.979 154.046 109.508C153.226 108.517 151.896 107.357 151.896 106.537C150.566 94.4822 145.784 83.107 138.37 73.6843C135.059 53.8767 121.873 47.7646 121.534 47.5949C121.873 48.1042 130.447 60.4698 124.505 74.9859C118.393 89.6718 102.717 87.3798 101.387 87.5213C100.057 87.5213 94.9633 94.1144 88.5117 106.338C87.6911 105.999 84.2106 105.178 80.2491 105.857C83.2202 97.5949 87.6911 85.8801 88.5117 84.8897C88.8512 84.5502 91.313 83.8993 92.9825 83.4183C96.1234 82.5977 97.5949 82.0883 98.1042 81.4375C98.4438 80.9282 100.085 77.1365 101.726 73.1749C103.226 73.1749 107.018 72.8354 107.329 72.6656C107.668 72.326 110.809 64.2615 110.809 63.2711C110.809 62.4505 104.358 46.4347 101.896 40.3226C103.056 38.9927 104.216 37.3515 105.348 35.5405C139.191 39.1908 165.62 67.9118 165.62 102.717C165.62 129.457 149.943 152.745 127.165 163.639Z" fill="#1B314F"/>
<path d="M83.2483 74.5048C86.3893 70.8829 84.7481 64.12 78.9473 62.9598C80.447 59.5077 82.5692 52.575 82.5692 52.575C82.5692 52.575 65.7328 78.9757 64.2614 79.485C62.7616 79.9944 61.2902 74.1936 61.2902 74.1936C58.1493 86.2479 66.5817 87.8891 67.5721 84.0974C72.1844 82.9089 80.1074 77.957 83.2483 74.5048Z" fill="#1B314F"/>
<path d="M68.8738 80.9282L77.4476 66.2422C77.4476 66.2422 82.3995 68.7323 79.9094 72.6939C76.7968 77.3062 68.8738 80.9282 68.8738 80.9282Z" fill="#FFD923"/>
<path d="M175.014 148.953C172.524 152.264 169.723 155.716 166.44 159.027C187.719 118.081 167.431 80.6169 166.61 79.1454C168.11 80.6452 169.581 82.2864 170.911 83.7578C187.238 101.896 189.219 129.145 175.014 148.953Z" fill="#D82122"/>
<path d="M194.822 96.2931C187.38 76.3158 176.825 59.3095 153.565 43.9728C131.126 29.1171 107.018 30.2773 105.688 30.447C105.518 30.447 105.348 30.447 105.348 30.447C106.169 30.1075 106.989 29.9377 107.81 29.7962C112.932 28.155 119.525 26.8251 126.146 26.0045C143.662 23.4861 161.319 29.4284 173.373 42.1618C173.543 42.3316 173.543 42.3316 173.713 42.5014C187.408 57.0175 194.511 75.1556 194.822 96.2931Z" fill="#D82122"/>
<path d="M148.274 14.5728C123.684 9.96044 107.838 12.2525 96.4347 16.5535C96.0951 15.2236 94.935 12.592 93.9446 10.4415C90.5207 14.5728 86.8705 19.5247 84.5785 22.6656C78.2966 26.9667 75.665 31.098 75.665 31.098C79.287 18.7041 89.8699 9.4794 102.745 7.15908C106.367 6.50826 110.328 6.1687 114.629 6.1687C126.005 6.33848 137.38 9.13984 148.274 14.5728Z" fill="#D82122"/>
<path d="M57.3288 46.2649C38.0306 45.6141 44.4539 23.1466 44.7934 21.845C44.7934 22.0148 46.0951 39.502 57.3288 46.2649Z" fill="#D82122"/>
<path d="M76.3157 5.8291C61.46 14.7425 64.4311 36.0215 64.4311 36.0215C50.2262 14.4313 75.1555 6.33844 76.3157 5.8291Z" fill="#D82122"/>
<path d="M51.8959 52.2071C52.8862 53.0277 53.8766 54.5274 52.7165 56.678C52.0656 57.8381 51.0753 57.6684 49.5755 57.0175C47.5948 56.0272 35.7102 49.0945 24.9858 41.9921C37.21 46.2931 49.5755 50.9055 51.5563 51.8959C51.5563 51.8959 51.7261 52.0656 51.8959 52.2071Z" fill="white"/>
</g>
<defs>
<clipPath id="clip0_11_49">
<rect width="200" height="188.229" fill="white"/>
</clipPath>
</defs>
</svg>
